<svg xmlns="http://www.w3.org/2000/svg" width="20" height="18.866" viewBox="0 0 20 18.866">
  <path id="Icon_ionic-md-arrow-round-back" data-name="Icon ionic-md-arrow-round-back" d="M23.892,13.944H11.729l4.717-4.513a1.88,1.88,0,0,0,0-2.569,1.681,1.681,0,0,0-2.455,0L6.137,14.478a1.731,1.731,0,0,0-.512,1.273v.023a1.731,1.731,0,0,0,.512,1.273l7.849,7.616a1.681,1.681,0,0,0,2.455,0,1.88,1.88,0,0,0,0-2.569l-4.717-4.513H23.886a1.779,1.779,0,0,0,1.739-1.819A1.76,1.76,0,0,0,23.892,13.944Z" transform="translate(-5.625 -6.33)" fill="#fff"/>
</svg>
