<svg xmlns="http://www.w3.org/2000/svg" width="20" height="20" viewBox="0 0 20 20">
  <path id="Icon_awesome-check-square" data-name="Icon awesome-check-square" d="M17.857,22.25H2.143A2.143,2.143,0,0,1,0,20.107V4.393A2.143,2.143,0,0,1,2.143,2.25H17.857A2.143,2.143,0,0,1,20,4.393V20.107A2.143,2.143,0,0,1,17.857,22.25ZM8.719,17.872l8.214-8.214a.714.714,0,0,0,0-1.01l-1.01-1.01a.714.714,0,0,0-1.01,0l-6.7,6.7L5.087,11.209a.714.714,0,0,0-1.01,0l-1.01,1.01a.714.714,0,0,0,0,1.01l4.643,4.643a.714.714,0,0,0,1.01,0Z" transform="translate(0 -2.25)" fill="#ffb81c"/>
</svg>
