<svg xmlns="http://www.w3.org/2000/svg" width="20.402" height="20.395" viewBox="0 0 20.402 20.395">
  <g id="Icon_ionic-ios-close" data-name="Icon ionic-ios-close" transform="translate(-11.085 -11.089)" fill="#fff">
    <path d="M 29.61455917358398 31.38343238830566 C 29.1386890411377 31.38343238830566 28.6932487487793 31.2000617980957 28.36028861999512 30.86710357666016 L 21.28777885437012 23.79458236694336 L 14.21525955200195 30.86710357666016 C 13.88229942321777 31.2000617980957 13.43685913085938 31.38343238830566 12.96098899841309 31.38343238830566 C 12.4851188659668 31.38343238830566 12.03967952728271 31.2000617980957 11.70671939849854 30.86710357666016 C 11.37038898468018 30.5307731628418 11.18515872955322 30.0853328704834 11.18515872955322 29.61284255981445 C 11.18515872955322 29.14034271240234 11.37038898468018 28.69490242004395 11.70671939849854 28.35857200622559 L 18.77923965454102 21.28605270385742 L 11.70671939849854 14.21353244781494 C 11.37038898468018 13.8772029876709 11.18515872955322 13.4317626953125 11.18515872955322 12.95926284790039 C 11.18515872955322 12.48677253723145 11.37038898468018 12.04133224487305 11.70671939849854 11.705002784729 C 12.03967952728271 11.37204265594482 12.4851188659668 11.18868255615234 12.96098899841309 11.18868255615234 C 13.43685913085938 11.18868255615234 13.88229942321777 11.37204265594482 14.21525955200195 11.705002784729 L 21.28777885437012 18.77752304077148 L 28.36030006408691 11.705002784729 C 28.69325828552246 11.37204265594482 29.1386890411377 11.18867301940918 29.61455917358398 11.18867301940918 C 30.09042930603027 11.18867301940918 30.53586959838867 11.37204265594482 30.86882972717285 11.705002784729 C 31.56042861938477 12.39660263061523 31.56042861938477 13.52192306518555 30.86882972717285 14.21353244781494 L 23.79629898071289 21.28605270385742 L 30.86881828308105 28.35857200622559 C 31.20177841186523 28.69153213500977 31.3851490020752 29.13697242736816 31.3851490020752 29.61284255981445 C 31.3851490020752 30.08870315551758 31.20177841186523 30.53414344787598 30.86881828308105 30.86710357666016 C 30.53586006164551 31.2000617980957 30.09042930603027 31.38343238830566 29.61455917358398 31.38343238830566 Z" stroke="none"/>
    <path d="M 12.96098899841309 11.28866958618164 C 12.53155708312988 11.28866958618164 12.10212326049805 11.45101737976074 11.77742958068848 11.77571296691895 C 11.45273971557617 12.10040283203125 11.28516006469727 12.52983283996582 11.28516006469727 12.95926284790039 C 11.28516006469727 13.38870239257812 11.45273971557617 13.8181324005127 11.77742958068848 14.142822265625 L 18.9206600189209 21.28605270385742 L 11.77742958068848 28.42928314208984 C 11.45273971557617 28.75397300720215 11.28516006469727 29.18341255187988 11.28516006469727 29.61284255981445 C 11.28516006469727 30.04227256774902 11.45273971557617 30.47170257568359 11.77742958068848 30.7963924407959 C 12.10212326049805 31.1210880279541 12.53155708312988 31.2834358215332 12.96098899841309 31.2834358215332 C 13.39042091369629 31.2834358215332 13.81985473632812 31.1210880279541 14.1445484161377 30.7963924407959 L 21.28777885437012 23.65316200256348 L 28.43099975585938 30.7963924407959 C 28.75569534301758 31.1210880279541 29.18512725830078 31.2834358215332 29.61455917358398 31.2834358215332 C 30.04398918151855 31.2834358215332 30.47341918945312 31.1210880279541 30.79810905456543 30.7963924407959 C 31.4474983215332 30.14701271057129 31.4474983215332 29.07866287231445 30.79810905456543 28.42928314208984 L 23.65487861633301 21.28605270385742 L 30.79811859130859 14.142822265625 C 31.4474983215332 13.49343299865723 31.4474983215332 12.42509269714355 30.79811859130859 11.77571296691895 C 30.47342300415039 11.45101737976074 30.04399108886719 11.28866958618164 29.61455917358398 11.28866958618164 C 29.18512916564941 11.28866958618164 28.75569915771484 11.45101737976074 28.43100929260254 11.77571296691895 L 21.28777885437012 18.91894340515137 L 14.1445484161377 11.77571296691895 C 13.81985473632812 11.45101737976074 13.39042091369629 11.28866958618164 12.96098899841309 11.28866958618164 M 12.96098899841309 11.08867263793945 C 13.46356964111328 11.08867263793945 13.93411827087402 11.28244209289551 14.28596878051758 11.63429260253906 L 21.28777885437012 18.6361026763916 L 28.28958892822266 11.63429260253906 C 28.64141845703125 11.28244209289551 29.11198043823242 11.08867263793945 29.61455917358398 11.08867263793945 C 30.11713790893555 11.08867263793945 30.58768844604492 11.28244209289551 30.93953895568848 11.63429260253906 C 31.67012786865234 12.36488342285156 31.67012786865234 13.55364227294922 30.93953895568848 14.28424263000488 L 23.93771934509277 21.28605270385742 L 30.93952941894531 28.28786277770996 C 31.29137802124023 28.63970184326172 31.48514938354492 29.11025238037109 31.48514938354492 29.61283302307129 C 31.48514938354492 30.11542129516602 31.29137802124023 30.58597183227539 30.93952941894531 30.93781280517578 C 30.58767890930176 31.2896614074707 30.11713027954102 31.48343276977539 29.61455917358398 31.48343276977539 C 29.11198043823242 31.48343276977539 28.64142990112305 31.2896614074707 28.28957939147949 30.93781280517578 L 21.28777885437012 23.93600273132324 L 14.28596878051758 30.93781280517578 C 13.93410873413086 31.2896614074707 13.46356010437012 31.48343276977539 12.96098899841309 31.48343276977539 C 12.45840835571289 31.48343276977539 11.98785972595215 31.2896614074707 11.63600921630859 30.93781280517578 C 11.28078842163086 30.58259201049805 11.08515930175781 30.11204147338867 11.08515930175781 29.61284255981445 C 11.08515930175781 29.11363220214844 11.28078842163086 28.64308166503906 11.63600921630859 28.28786277770996 L 18.63781929016113 21.28605270385742 L 11.63600921630859 14.28424263000488 C 11.28078842163086 13.92902183532715 11.08515930175781 13.45847320556641 11.08515930175781 12.95926284790039 C 11.08515930175781 12.46006202697754 11.28078842163086 11.9895133972168 11.63600921630859 11.63429260253906 C 11.98783874511719 11.28244209289551 12.45839881896973 11.08867263793945 12.96098899841309 11.08867263793945 Z" stroke="none" fill="#fff"/>
  </g>
</svg>
