<svg xmlns="http://www.w3.org/2000/svg" xmlns:xlink="http://www.w3.org/1999/xlink" width="104.704" height="30.055" viewBox="0 0 104.704 30.055">
  <defs>
    <clipPath id="clip-path">
      <rect id="Rectangle_36" data-name="Rectangle 36" width="29.975" height="30.055" fill="none"/>
    </clipPath>
    <clipPath id="clip-path-2">
      <rect id="Rectangle_38" data-name="Rectangle 38" width="65.564" height="17.038" fill="none"/>
    </clipPath>
  </defs>
  <g id="Group_162" data-name="Group 162" transform="translate(-114 -14.563)">
    <g id="Group_159" data-name="Group 159" transform="translate(114 14.563)">
      <g id="Group_158" data-name="Group 158" transform="translate(0 0)" clip-path="url(#clip-path)">
        <path id="Path_48" data-name="Path 48" d="M29.823,15.113a11.121,11.121,0,0,1-3.874,10.377,18.445,18.445,0,0,1-10.462,4.457c-2.548.2-5.423.225-7.7-.952C3.487,26.767.759,21.459.122,16.739A15.679,15.679,0,0,1,1.681,7.949C4.963.777,14.864-2.034,21.609,1.56,26.181,4,29.018,10.125,29.823,15.113" transform="translate(0 0.001)" fill="#70d9e5"/>
        <path id="Path_49" data-name="Path 49" d="M52.02,31.549c-.86-.008-4.856-.024-5.724.371a1.745,1.745,0,0,0-1.027,1.4S44.975,40.8,44.987,48.4c.055,1.387,1.532,1.52,1.6,1.525l10.446.169h.021c1.085-.136,1.457-1.449,1.5-1.6a.111.111,0,0,0,0-.028V37.507a.228.228,0,0,0-.052-.169.2.2,0,0,0-.2-.022c-.842.26-3.621.948-5.253-.686-1.877-1.661-1.144-4.246-.913-4.911a.14.14,0,0,0-.009-.113.117.117,0,0,0-.107-.057" transform="translate(-36.782 -25.792)" fill="#fff"/>
        <path id="Path_50" data-name="Path 50" d="M91.174,34l3.963,3.7a.167.167,0,0,1-.066.283c-.7.207-2.572.621-3.64-.5A3.6,3.6,0,0,1,90.9,34.08.167.167,0,0,1,91.174,34" transform="translate(-74.155 -27.766)" fill="#fff"/>
        <path id="Path_51" data-name="Path 51" d="M63.469,81.281l-3.145-2.866a2.341,2.341,0,0,0-1.106-.56h-.211a2.34,2.34,0,0,0-1.106.56l-3.145,2.866c-.479.379-1.2,1.22-.511,1.988s1.67.121,1.75.106.164,0,.169.15v4.3l5.9.1V83.525c.005-.154.089-.166.169-.15s1.048.671,1.75-.106-.117-1.655-.511-1.988" transform="translate(-44.118 -63.655)" fill="#f93822"/>
        <path id="Path_52" data-name="Path 52" d="M78.352,115.815a1.047,1.047,0,0,1-1.038,1.093,1.093,1.093,0,0,1-1.093-1.093,1.038,1.038,0,0,1,1.093-1.026.992.992,0,0,1,1.038,1.026" transform="translate(-62.319 -93.853)" fill="#ffb81c"/>
      </g>
    </g>
    <g id="Group_161" data-name="Group 161" transform="translate(153.14 21.104)">
      <g id="Group_160" data-name="Group 160" transform="translate(0 0)" clip-path="url(#clip-path-2)">
        <path id="Path_53" data-name="Path 53" d="M8.258,10.441A2.238,2.238,0,0,0,6.025,8.053a2.226,2.226,0,0,0-2.389,2.441v4.934a1.721,1.721,0,0,1-1.818,1.61A1.773,1.773,0,0,1,0,15.428V1.611A1.773,1.773,0,0,1,1.818,0a1.721,1.721,0,0,1,1.818,1.61V6.676a3.574,3.574,0,0,1,3.376-2.13c3.194,0,4.882,2.1,4.882,5.765v5.116a1.721,1.721,0,0,1-1.818,1.61,1.773,1.773,0,0,1-1.818-1.61Z" transform="translate(0 -0.001)" fill="#f93822"/>
        <path id="Path_54" data-name="Path 54" d="M57.857,22.913a1.721,1.721,0,0,1-1.818,1.61,1.773,1.773,0,0,1-1.818-1.61V17.927a2.131,2.131,0,0,0-2.026-2.415c-1.142,0-2.051.7-2.051,2.467v4.934a1.721,1.721,0,0,1-1.818,1.61,1.773,1.773,0,0,1-1.818-1.61V17.849a2.084,2.084,0,0,0-2-2.337c-1.091,0-2.1.623-2.1,2.467v4.934a1.721,1.721,0,0,1-1.818,1.61,1.773,1.773,0,0,1-1.818-1.61V13.746a1.773,1.773,0,0,1,1.818-1.61,1.721,1.721,0,0,1,1.818,1.61v.023a3.244,3.244,0,0,1,3.168-1.737,3.915,3.915,0,0,1,4,2.285A3.91,3.91,0,0,1,53.1,12.006c2.882,0,4.726,1.844,4.752,5.506Z" transform="translate(-24.174 -7.486)" fill="#f93822"/>
        <path id="Path_55" data-name="Path 55" d="M105.525,19.682l1.9-6.233a1.745,1.745,0,0,1,2.285-1.038,1.693,1.693,0,0,1,1.065,2.155l-3.065,8.752a1.962,1.962,0,0,1-1.9,1.4h-.156a1.829,1.829,0,0,1-1.818-1.4l-1.974-6.44-1.9,6.44a1.85,1.85,0,0,1-1.818,1.4h-.155a1.985,1.985,0,0,1-1.9-1.4L92.93,14.566a1.692,1.692,0,0,1,1.065-2.155,1.745,1.745,0,0,1,2.285,1.038l1.9,6.233,1.74-5.895a1.8,1.8,0,0,1,1.844-1.454h.208a1.772,1.772,0,0,1,1.818,1.454Z" transform="translate(-57.888 -7.684)" fill="#ffb81c"/>
        <path id="Path_56" data-name="Path 56" d="M149.426,12.129v3.3a1.721,1.721,0,0,1-1.818,1.61,1.773,1.773,0,0,1-1.818-1.61V1.61A1.774,1.774,0,0,1,147.608,0a1.721,1.721,0,0,1,1.818,1.61V8.129l2.831-2.857a1.726,1.726,0,0,1,2.337-.208,1.619,1.619,0,0,1,.233,2.311L152,10.129l4,4.181a1.587,1.587,0,0,1-.1,2.363,1.846,1.846,0,0,1-2.389-.156Z" transform="translate(-90.907 0)" fill="#70d9e5"/>
      </g>
    </g>
  </g>
</svg>
