<svg xmlns="http://www.w3.org/2000/svg" xmlns:xlink="http://www.w3.org/1999/xlink" width="29.46" height="28.808" viewBox="0 0 29.46 28.808">
  <defs>
    <clipPath id="clip-path">
      <rect id="Rectangle_30" data-name="Rectangle 30" width="29.46" height="28.808" fill="none"/>
    </clipPath>
  </defs>
  <g id="Group_131" data-name="Group 131" transform="translate(2 4.808)">
    <g id="Group_130" data-name="Group 130" transform="translate(-2 -4.808)" clip-path="url(#clip-path)">
      <path id="Path_46" data-name="Path 46" d="M27.222,9.807l-9-8.2S16.38,0,15.054,0h-.6c-1.326,0-3.166,1.6-3.166,1.6l-9,8.2C.912,10.89-1.166,13.3.82,15.5c2.008,2.224,4.782.348,5.009.3s.469-.009.483.43V28.535l16.88.273V16.229c.014-.44.256-.476.483-.43s3,1.922,5.009-.3c1.987-2.2-.336-4.737-1.462-5.69" transform="translate(0 0)" fill="#f93822"/>
      <path id="Path_47" data-name="Path 47" d="M47.059,70.885a3,3,0,0,1-2.971,3.129,3.129,3.129,0,0,1-3.129-3.129,2.97,2.97,0,0,1,3.129-2.937,2.839,2.839,0,0,1,2.971,2.937" transform="translate(-29.336 -48.667)" fill="#ffb81c"/>
    </g>
  </g>
</svg>
