<svg id="Group_152" data-name="Group 152" xmlns="http://www.w3.org/2000/svg" xmlns:xlink="http://www.w3.org/1999/xlink" width="90" height="117.43" viewBox="0 0 90 117.43">
  <defs>
    <clipPath id="clip-path">
      <rect id="Rectangle_29" data-name="Rectangle 29" width="90" height="117.43" fill="#fff"/>
    </clipPath>
  </defs>
  <g id="Group_95" data-name="Group 95" transform="translate(22.765 49.346)">
    <rect id="Rectangle_26" data-name="Rectangle 26" width="8.456" height="42.28" rx="4.228" transform="translate(16.912)" fill="#fff"/>
    <rect id="Rectangle_28" data-name="Rectangle 28" width="8.456" height="42.28" rx="4.228" transform="translate(42.28 16.912) rotate(90)" fill="#fff"/>
  </g>
  <g id="Group_97" data-name="Group 97">
    <g id="Group_96" data-name="Group 96" clip-path="url(#clip-path)">
      <path id="Path_44" data-name="Path 44" d="M83.228,25.123,61.4,4.733C54.868-.507,48.915.037,46.444.016,45.679.009,44.47,0,42.959,0,17.721,0,13.493,1.923,11.687,2.744A17.323,17.323,0,0,0,1.564,17.007l0,.061,0,.061C1.542,17.541-.064,58.94,0,100.474v.146l.005.145A15.48,15.48,0,0,0,8.4,114.241a19.748,19.748,0,0,0,7.468,2.238l.229.017.23,0,57.525.93h.138a8.471,8.471,0,0,0,1.06-.067c8.324-1.044,13.107-8.434,14.672-14.444a8.257,8.257,0,0,0,.265-2.079V40.668c.1-2.67,0-8.556-6.755-15.545M55.554,10.067a.918.918,0,0,1,.63.251l21.826,20.39a.92.92,0,0,1-.364,1.556,32.517,32.517,0,0,1-8.9,1.372c-3.9,0-8.109-.929-11.14-4.1-5.841-6.107-3.942-15.327-2.933-18.81a.914.914,0,0,1,.884-.662m26.786,30.4v60.369a.576.576,0,0,1-.019.153c-.21.809-2.255,8.037-8.232,8.787a.828.828,0,0,1-.1.007h-.014l-57.525-.929c-.367-.028-8.5-.759-8.8-8.4C7.578,58.6,9.2,17.428,9.2,17.428A9.608,9.608,0,0,1,14.851,9.7C18.874,7.872,35.1,7.643,42.959,7.643c1.479,0,2.664.008,3.414.015a.647.647,0,0,1,.59.316.769.769,0,0,1,.049.62c-1.271,3.663-5.306,17.9,5.03,27.044,4.491,4.5,10.559,5.8,16.085,5.8a45.439,45.439,0,0,0,12.841-2.023,1.677,1.677,0,0,1,.49-.081.887.887,0,0,1,.6.2,1.255,1.255,0,0,1,.286.932" transform="translate(0)" fill="#fff"/>
    </g>
  </g>
</svg>
